<svg xmlns="http://www.w3.org/2000/svg" xmlns:xlink="http://www.w3.org/1999/xlink" version="1.1" x="0px" y="0px" viewBox="0 0 100 100" style="enable-background:new 0 0 100 100;" xml:space="preserve"><g><path d="M86.17,10.562c-2.161-2.393-5.337-3.44-8.502-2.797c-4.345,0.882-7.896,6.524-10.749,11.058   c-1.187,1.886-2.664,4.232-3.294,4.501c-2.422,1.031-4.861,4.771-5.566,5.916c-2.686-0.216-5.45-0.221-8.098-0.221   c-0.017,0-0.033,0-0.049,0h-0.481c-2.6-0.002-5.316,0.002-7.969,0.204c-0.789-1.264-3.209-4.896-5.564-5.899   c-0.63-0.269-2.107-2.615-3.294-4.501c-2.854-4.534-6.404-10.176-10.75-11.058c-3.167-0.644-6.342,0.404-8.502,2.797   c-2.64,2.923-3.342,7.207-1.926,11.753c1.774,5.698,1.375,7.485,0.77,10.189c-0.158,0.705-0.327,1.46-0.473,2.341   c-0.743,4.461,1.783,10.823,4.488,14.952c-0.517,2.056-0.824,4.39-0.824,7.107c0,1.361-0.025,2.677-0.048,3.948   c-0.138,7.373-0.257,13.74,4.854,19.317c0.435,1.522,1.435,2.956,2.915,4.26c0,0,0.565,0.544,1.759,1.346   c5.292,3.529,14.375,5.814,24.895,5.814c10.468,0,19.515-2.262,24.818-5.76c1.318-0.855,1.49-1.039,1.49-1.039   c1.516-1.34,2.737-3.026,3.249-4.699l0.047,0.038c5.089-6.29,5.081-13.985,5.073-22.132l-0.001-1.093   c0.001-2.762-0.379-5.168-1.011-7.299c2.662-4.138,5.104-10.375,4.374-14.76c-0.146-0.88-0.315-1.636-0.473-2.341   c-0.605-2.704-1.005-4.491,0.77-10.189C89.512,17.769,88.81,13.485,86.17,10.562z M13.695,35.174   c0.14-0.84,0.302-1.561,0.452-2.233c0.626-2.8,1.121-5.012-0.812-11.221c-1.2-3.854-0.653-7.433,1.501-9.818   c1.683-1.863,4.158-2.676,6.62-2.178c3.506,0.711,6.944,6.174,9.454,10.163c1.969,3.129,3.051,4.785,4.203,5.275   c1.518,0.647,3.243,2.918,4.14,4.279c-2.57,0.327-5.023,0.915-7.194,1.944c0.323-1.514,0.429-3.54-0.44-5.643   c-0.337-0.814-0.696-1.76-1.076-2.759c-1.228-3.229-2.595-6.823-4.182-8.775c-0.405-0.498-1.165-0.489-1.561,0.016   c-0.296,0.378-0.264,0.899,0.037,1.273c1.359,1.682,2.77,5.393,3.836,8.197c0.387,1.018,0.754,1.981,1.097,2.812   c0.945,2.287,0.395,4.545-0.018,5.691c-0.067,0.185-0.06,0.375-0.017,0.554c-0.447,0.323-0.882,0.664-1.289,1.046   c-0.79,0.741-1.617,1.452-2.492,2.204c-3.318,2.851-6.925,5.969-8.95,11.263C14.829,43.448,13.142,38.497,13.695,35.174z    M49.761,89.589c-6.452,0-12.471-0.935-17.251-2.476c0.917-0.077,1.904-0.227,2.965-0.471c5.419-1.246,7.339-3.052,8.882-4.504   c0.752-0.708,1.347-1.267,2.242-1.61c1.874-0.719,4.26-0.715,6.384,0.013c0.918,0.313,1.494,0.857,2.291,1.609   c1.459,1.378,3.457,3.265,8.799,4.492c1.061,0.244,2.042,0.387,2.96,0.464C62.249,88.651,56.222,89.589,49.761,89.589z    M46.971,66.211L46.971,66.211c-0.503,0.043-0.895,0.45-0.913,0.953c-0.022,0.619-0.114,1.383-0.375,1.901   c-0.018,0.035-0.029,0.048-0.043,0.072l-1.911-1.185c-0.806-0.424-1.198-1.231-0.974-2.01c0.205-0.714,0.886-1.257,1.73-1.385   l4.078-0.601c0.436-0.064,0.874-0.097,1.313-0.097c0.449,0,0.898,0.034,1.344,0.102l3.945,0.596   c0.849,0.128,1.528,0.671,1.733,1.385c0.224,0.778-0.168,1.586-1.036,2.045l-1.94,1.204c-0.021-0.029-0.045-0.064-0.076-0.125   c-0.261-0.519-0.354-1.283-0.376-1.902c-0.018-0.504-0.411-0.91-0.913-0.953c-0.594-0.051-1.108,0.425-1.087,1.021   c0.028,0.798,0.157,1.874,0.59,2.734c0.055,0.108,0.117,0.182,0.177,0.273l-0.966,0.6c-0.143,0.089-0.302,0.14-0.457,0.199V67.72   c0-0.588-0.448-1.065-1-1.065s-1,0.477-1,1.065v3.307c-0.147-0.058-0.298-0.105-0.433-0.189l-1.054-0.654   c0.047-0.075,0.098-0.132,0.141-0.218c0.433-0.86,0.562-1.936,0.589-2.734C48.078,66.635,47.565,66.16,46.971,66.211z    M53.884,69.216l-0.051,0.032l-0.033-0.034C53.82,69.208,53.852,69.209,53.884,69.216z M73.632,84.077   c-1.579,0.808-4.522,1.669-9.112,0.615c-4.811-1.106-6.509-2.709-7.873-3.997c-0.868-0.819-1.688-1.594-3.017-2.048   c-0.917-0.313-1.878-0.509-2.838-0.597c0.004-0.04,0.022-0.074,0.022-0.115v-4.801c0.532-0.114,1.044-0.307,1.512-0.597   l4.528-2.815c1.643-0.862,2.451-2.645,1.966-4.331c-0.42-1.463-1.737-2.566-3.356-2.812l-3.945-0.596   c-1.08-0.163-2.172-0.162-3.248-0.005l-4.082,0.601c-1.619,0.245-2.937,1.348-3.357,2.811c-0.485,1.688,0.323,3.469,1.903,4.297   l1.639,1.017c0.086,0.074,0.256,0.196,0.5,0.311l2.452,1.523c0.46,0.286,0.965,0.478,1.487,0.592v4.806   c0,0.034,0.015,0.062,0.018,0.095c-1.038,0.074-2.041,0.28-2.95,0.629c-1.262,0.484-2.056,1.23-2.896,2.021   c-1.438,1.353-3.068,2.887-7.959,4.011c-4.71,1.081-7.681,0.146-9.226-0.677c-2.439-1.648-3.857-3.552-3.857-5.561   c0-3.374,2.831-6.204,8.187-8.183c3.179-1.175,5.886-3.357,7.621-6.146c1.938-3.116,6.877-5.292,12.009-5.292   c5.133,0,10.071,2.176,12.008,5.292c1.735,2.789,4.442,4.972,7.622,6.146c5.356,1.979,8.188,4.809,8.188,8.183   C77.579,80.488,76.127,82.415,73.632,84.077z M79.363,76.62c-0.646-2.709-2.937-5.882-9.278-8.226   c-2.766-1.021-5.115-2.912-6.616-5.326c-2.32-3.729-7.828-6.235-13.708-6.235c-5.878,0-11.387,2.506-13.708,6.235   c-1.501,2.414-3.851,4.306-6.616,5.326c-6.51,2.406-8.747,5.686-9.322,8.44c-2.987-4.515-2.895-9.654-2.777-15.944   c0.024-1.284,0.049-2.612,0.049-3.986c0-10.904,5.018-15.216,9.871-19.386c0.853-0.733,1.735-1.491,2.557-2.262   c4.525-4.244,12.542-4.232,19.615-4.239h0.534c0.017,0,0.032,0,0.049,0c6.936,0,14.784,0.01,19.14,4.074   c0.784,0.731,1.664,1.462,2.595,2.235c4.765,3.958,10.693,8.884,10.689,19.577l0.001,1.095   C82.444,65.087,82.449,71.33,79.363,76.62z M86.186,21.72c-1.933,6.208-1.438,8.42-0.812,11.22c0.15,0.673,0.312,1.394,0.452,2.234   c0.549,3.294-1.117,8.203-3.275,12.013c-2.309-5.382-6.31-8.726-9.527-11.399c-0.908-0.754-1.767-1.467-2.508-2.159   c-0.256-0.239-0.527-0.458-0.8-0.673c0.113-0.232,0.145-0.5,0.052-0.758c-0.413-1.146-0.963-3.405-0.018-5.691   c0.344-0.831,0.71-1.794,1.098-2.812c1.065-2.804,2.477-6.515,3.835-8.197c0.301-0.373,0.333-0.894,0.038-1.272   c-0.395-0.505-1.156-0.514-1.561-0.017c-1.588,1.952-2.954,5.546-4.182,8.774c-0.379,0.999-0.739,1.944-1.075,2.759   c-0.897,2.169-0.759,4.264-0.413,5.792c-2.152-1.099-4.632-1.715-7.243-2.063c0.889-1.356,2.627-3.656,4.16-4.309   c1.152-0.491,2.234-2.146,4.203-5.275c2.511-3.989,5.948-9.452,9.455-10.163c2.462-0.498,4.938,0.315,6.619,2.178   C86.84,14.288,87.387,17.866,86.186,21.72z"></path><path d="M29.128,49.084c-4.089,0-7.416,3.327-7.416,7.416s3.327,7.416,7.416,7.416s7.416-3.327,7.416-7.416   S33.218,49.084,29.128,49.084z M29.128,61.916c-2.986,0-5.416-2.43-5.416-5.416s2.43-5.416,5.416-5.416s5.416,2.43,5.416,5.416   S32.115,61.916,29.128,61.916z"></path><path d="M71.128,49.084c-4.089,0-7.416,3.327-7.416,7.416s3.327,7.416,7.416,7.416s7.416-3.327,7.416-7.416   S75.217,49.084,71.128,49.084z M71.128,61.916c-2.986,0-5.416-2.43-5.416-5.416s2.43-5.416,5.416-5.416s5.416,2.43,5.416,5.416   S74.114,61.916,71.128,61.916z"></path><circle cx="29.128" cy="56.5" r="4.511"></circle><circle cx="71.128" cy="56.5" r="4.511"></circle><path d="M65.447,49.153c0.782-0.763,1.849-1.234,2.583-1.49c0.475-0.166,0.751-0.656,0.647-1.148l0-0.001   c-0.124-0.59-0.734-0.94-1.303-0.741c-0.93,0.325-2.281,0.931-3.324,1.948c-1.147,1.118-1.697,2.84-1.946,3.957   c-0.13,0.582,0.282,1.143,0.876,1.204c0.502,0.052,0.964-0.275,1.075-0.767C64.264,51.183,64.695,49.887,65.447,49.153z"></path><path d="M35.681,47.722c-1.043-1.018-2.395-1.624-3.326-1.949c-0.568-0.199-1.178,0.151-1.302,0.74l0,0.001   c-0.104,0.493,0.172,0.983,0.647,1.149c0.734,0.256,1.802,0.728,2.584,1.49c0.752,0.734,1.183,2.03,1.392,2.963   c0.11,0.492,0.573,0.818,1.074,0.766c0.593-0.061,1.005-0.622,0.876-1.204C37.377,50.562,36.828,48.84,35.681,47.722z"></path></g></svg>